<?xml version="1.0" encoding="utf-8"?>
<!-- Generator: Adobe Illustrator 16.0.2, SVG Export Plug-In . SVG Version: 6.00 Build 0)  -->
<!DOCTYPE svg PUBLIC "-//W3C//DTD SVG 1.1//EN" "http://www.w3.org/Graphics/SVG/1.1/DTD/svg11.dtd">
<svg version="1.1" xmlns="http://www.w3.org/2000/svg" xmlns:xlink="http://www.w3.org/1999/xlink" x="0px" y="0px" width="512px"
	 height="512px" viewBox="0 0 512 512" enable-background="new 0 0 512 512" xml:space="preserve">
<g id="Layer_1">
</g>
<g id="Layer_2">
</g>
<g id="Layer_3">
	<g opacity="0.2">
		<path fill="#FFFFFF" d="M316.378,233.444V57.005h111.035v393.339h-92.336l-135.58-205.1v205.1H88.46V57.005h111.037
			L316.378,233.444z"/>
	</g>
	<path fill="#D00000" d="M206,0h-0.188H53.89C24.126,0,0,26.199,0,58.51v394.981C0,485.804,24.126,512,53.89,512h151.922H207h49V0
		H206z"/>
	<path fill="#5800B3" d="M458.111,0H256v512h202.111C487.873,512,512,485.804,512,453.491V58.51C512,26.199,487.873,0,458.111,0z"/>
	<g>
		<path fill="#FFFFFF" d="M255.381,189.101c82.227,0,148.857-34.584,148.857-77.261c0-42.678-66.631-77.27-148.857-77.27
			c-82.219,0-148.885,34.592-148.885,77.27C106.496,154.517,173.162,189.101,255.381,189.101z"/>
		<path fill="#FFFFFF" d="M371.747,189.523c11.656-6.064,23.004-13.764,32.491-23.071v76.957
			c-17.56,1.434-34.041,9.345-46.46,22.326l-14.896,15.437c-9.904,10.318-15.118,24.521-14.284,39.085
			c-14.039-0.882-27.758,4.521-37.689,14.838l-14.887,15.435c-18.783,19.488-26.076,47.916-19.146,74.516l-18.87,19.68
			c-0.424,0.439-0.833,0.881-1.239,1.35c-73.445-4.777-130.271-37.273-130.271-76.681V166.452
			c9.515,9.308,20.853,17.007,32.519,23.071c31.06,16.115,72.252,25.34,116.366,25.34S340.688,205.639,371.747,189.523z"/>
		<path fill="#FFFFFF" d="M483.599,262.611c4.842-5.016,4.842-13.193,0.008-18.219c-4.84-5.035-12.7-5.035-17.551-0.018
			l-29.438,30.539c-0.302,0.441-0.585,0.91-0.86,1.37c-19.472-12.056-44.352-8.886-60.443,7.718l-14.879,15.472
			c-9.479,9.85-9.479,25.827,0,35.685l35.785,37.066c9.488,9.867,24.891,9.867,34.404,0l14.889-15.455
			c16.002-16.676,19.082-42.54,7.436-62.771c0.469-0.248,0.901-0.561,1.326-0.893L483.599,262.611z"/>
		<path fill="#FFFFFF" d="M335.883,353.296c-9.479-9.859-24.88-9.859-34.378,0l0,0l-14.888,15.454
			c-16.021,16.695-19.1,42.539-7.436,62.771c-0.468,0.266-0.911,0.559-1.336,0.891l-29.314,30.512
			c-4.771,5.129-4.62,13.27,0.302,18.221c4.797,4.824,12.418,4.824,17.232,0l29.413-30.541c0.317-0.439,0.62-0.898,0.876-1.369
			c19.49,12.074,44.37,8.885,60.453-7.717l14.888-15.473c9.497-9.84,9.505-25.809,0.017-35.686c0-0.008,0-0.026-0.017-0.026
			L335.883,353.296z"/>
	</g>
</g>
</svg>
