<?xml version="1.0" encoding="utf-8"?>
<!-- Generator: Adobe Illustrator 16.0.2, SVG Export Plug-In . SVG Version: 6.00 Build 0)  -->
<!DOCTYPE svg PUBLIC "-//W3C//DTD SVG 1.1//EN" "http://www.w3.org/Graphics/SVG/1.1/DTD/svg11.dtd">
<svg version="1.1" xmlns="http://www.w3.org/2000/svg" xmlns:xlink="http://www.w3.org/1999/xlink" x="0px" y="0px"
	 width="3128.739px" height="461px" viewBox="0 0 3128.739 461" enable-background="new 0 0 3128.739 461" xml:space="preserve">
<g id="Layer_1">
</g>
<g id="Layer_2">
</g>
<g id="Layer_3">
	<path fill="#D00000" d="M185.48,0h-0.188H48.511C21.735,0,0,23.609,0,52.683v355.636C0,437.394,21.735,461,48.511,461h136.781
		h1.089H230.5V0H185.48z"/>
	<path fill="#5800B3" d="M412.49,0H230.5v461h181.99c26.773,0,48.51-23.606,48.51-52.682V52.683C461,23.609,439.264,0,412.49,0z"/>
	<g>
		<path fill="#FFFFFF" d="M229.931,170.274c74.059,0,134.059-31.147,134.059-69.591c0-38.395-60-69.55-134.059-69.55
			c-74.001,0-134.043,31.155-134.043,69.55C95.888,139.127,155.93,170.274,229.931,170.274z"/>
		<path fill="#FFFFFF" d="M334.713,170.647c10.49-5.467,20.709-12.407,29.276-20.78v69.287c-15.81,1.284-30.647,8.416-41.871,20.117
			l-13.401,13.91c-8.908,9.272-13.62,22.081-12.84,35.176c-12.645-0.808-25.019,4.049-33.954,13.368l-13.393,13.891
			c-16.898,17.546-23.486,43.135-17.254,67.095l-16.978,17.731c-0.374,0.396-0.733,0.787-1.135,1.206
			c-66.129-4.329-117.276-33.588-117.276-69.061V149.867c8.568,8.373,18.761,15.313,29.281,20.78
			c27.972,14.521,65.042,22.8,104.762,22.8C269.662,193.447,306.771,185.169,334.713,170.647z"/>
		<path fill="#FFFFFF" d="M435.438,236.464c4.344-4.518,4.344-11.898,0.008-16.426c-4.391-4.537-11.455-4.537-15.808-0.018
			l-26.5,27.501c-0.302,0.392-0.535,0.811-0.8,1.221c-17.54-10.811-39.93-7.989-54.428,6.971l-13.385,13.928
			c-8.532,8.854-8.532,23.237,0,32.148l32.249,33.381c8.542,8.871,22.4,8.871,30.968,0l13.395-13.961
			c14.408-14.982,17.189-38.258,6.688-56.496c0.419-0.229,0.802-0.511,1.184-0.793L435.438,236.464z"/>
		<path fill="#FFFFFF" d="M302.414,318.084c-8.533-8.863-22.39-8.863-30.941,0l0,0l-13.394,13.929
			c-14.427,15.033-17.207,38.287-6.688,56.527c-0.419,0.216-0.851,0.509-1.236,0.791l-26.376,27.474
			c-4.312,4.631-4.172,11.975,0.252,16.428c4.349,4.326,11.203,4.326,15.539,0l26.475-27.503c0.268-0.39,0.57-0.799,0.776-1.222
			c17.548,10.831,39.981,7.99,54.427-6.968l13.443-13.929c8.551-8.844,8.559-23.223,0.017-32.149c0-0.008,0-0.026-0.017-0.026
			L302.414,318.084z"/>
	</g>
	<g>
		<path fill="#00E400" d="M727.046,335.25c-19.482,4.494-39.713,6.742-60.691,6.742c-83.921,0-125.879-40.832-125.879-122.506
			c0-75.676,41.958-113.516,125.879-113.516c20.979,0,41.209,2.248,60.691,6.742v47.205c-19.482-4.496-38.213-6.744-56.195-6.744
			c-47.205,0-70.807,22.107-70.807,66.313c0,50.203,23.602,75.303,70.807,75.303c17.982,0,36.713-2.248,56.195-6.744V335.25z"/>
		<path fill="#00E400" d="M755.144,223.98c0-79.123,38.962-118.686,116.888-118.686c77.923,0,116.888,39.563,116.888,118.686
			c0,78.977-38.965,118.461-116.888,118.461C794.403,342.441,755.442,302.957,755.144,223.98z M872.031,297.035
			c38.213,0,57.319-24.648,57.319-73.953c0-48.104-19.106-72.154-57.319-72.154s-57.319,24.051-57.319,72.154
			C814.712,272.387,833.818,297.035,872.031,297.035z"/>
		<path fill="#00E400" d="M1033.875,341.992V105.971h46.081l7.418,34.615c22.626-23.074,48.402-34.615,77.325-34.615
			c55.894,0,83.844,29.074,83.844,87.215v148.807h-59.567V193.186c0-26.074-12.964-39.111-38.888-39.111
			c-19.331,0-38.213,7.719-56.645,23.152v164.766H1033.875z"/>
		<path fill="#00E400" d="M1304.739,341.992V105.971h46.081l7.418,34.615c22.626-23.074,48.402-34.615,77.325-34.615
			c55.894,0,83.844,29.074,83.844,87.215v148.807h-59.567V193.186c0-26.074-12.964-39.111-38.888-39.111
			c-19.331,0-38.213,7.719-56.645,23.152v164.766H1304.739z"/>
		<path fill="#00E400" d="M1675.183,105.971c71.629,0,107.446,36.564,107.446,109.693c0,9.744-0.674,19.482-2.022,29.223h-156.674
			c0,33.268,24.424,49.902,73.279,49.902c23.827,0,47.653-2.248,71.48-6.744v47.205c-20.831,4.494-46.157,6.742-75.977,6.742
			c-85.568,0-128.352-40.236-128.352-120.709C1564.364,144.408,1601.303,105.971,1675.183,105.971z M1623.933,203.525h100.702
			v-1.797c0-32.668-16.486-49.004-49.452-49.004C1643.713,152.725,1626.63,169.66,1623.933,203.525z"/>
		<path fill="#00E400" d="M2001.567,335.25c-19.482,4.494-39.713,6.742-60.691,6.742c-83.921,0-125.879-40.832-125.879-122.506
			c0-75.676,41.958-113.516,125.879-113.516c20.979,0,41.209,2.248,60.691,6.742v47.205c-19.482-4.496-38.213-6.744-56.195-6.744
			c-47.205,0-70.807,22.107-70.807,66.313c0,50.203,23.602,75.303,70.807,75.303c17.982,0,36.713-2.248,56.195-6.744V335.25z"/>
		<path fill="#00E400" d="M2037.534,67.758h44.058l8.991,38.213h59.343v47.203h-52.824v108.57c0,22.029,9.515,33.045,28.547,33.045
			h24.277v47.203h-53.049c-39.563,0-59.343-21.203-59.343-63.613V67.758z"/>
		<path fill="#00E400" d="M2179.146,223.98c0-79.123,38.962-118.686,116.888-118.686c77.923,0,116.888,39.563,116.888,118.686
			c0,78.977-38.965,118.461-116.888,118.461C2218.406,342.441,2179.445,302.957,2179.146,223.98z M2296.034,297.035
			c38.213,0,57.319-24.648,57.319-73.953c0-48.104-19.106-72.154-57.319-72.154s-57.319,24.051-57.319,72.154
			C2238.715,272.387,2257.821,297.035,2296.034,297.035z"/>
		<path fill="#00E400" d="M2457.878,341.992V105.971h46.081l7.418,30.121c20.68-20.08,42.558-30.121,65.637-30.121v48.104
			c-22.18,0-42.035,9.215-59.567,27.648v160.27H2457.878z"/>
		<path fill="#00E400" d="M2664.68,286.92v55.072h-59.567V286.92H2664.68z"/>
		<path fill="#00E400" d="M2774.823,105.971V324.01c0,47.654-13.639,86.465-40.911,116.438l-46.755-32.594
			c18.73-20.23,28.098-48.18,28.098-83.844V105.971H2774.823z M2774.823,20.553v47.205h-59.568V20.553H2774.823z"/>
		<path fill="#00E400" d="M2831.019,330.754v-49.453c26.223,10.492,56.495,15.734,90.813,15.734
			c25.626,0,38.438-8.238,38.438-24.725c0-15.736-8.619-23.604-25.851-23.604h-42.709c-47.956,0-71.931-23.602-71.931-70.807
			c0-49.451,34.989-74.178,104.975-74.178c29.671,0,57.618,4.496,83.844,13.486v49.453c-26.226-10.488-54.699-15.734-85.418-15.734
			c-32.221,0-48.328,8.242-48.328,24.725c0,15.736,9.363,23.604,28.098,23.604h38.214c52.448,0,78.674,23.602,78.674,70.807
			c0,49.451-33.419,74.178-100.254,74.178C2886.765,344.24,2857.241,339.744,2831.019,330.754z"/>
	</g>
</g>
</svg>
